<mxfile host="65bd71144e">
    <diagram id="aqkEkj5ywmUzJdfXKJDp" name="Page-1">
        <mxGraphModel dx="729" dy="348" grid="1" gridSize="10" guides="1" tooltips="1" connect="1" arrows="1" fold="1" page="1" pageScale="1" pageWidth="850" pageHeight="1100" math="0" shadow="0">
            <root>
                <mxCell id="0"/>
                <mxCell id="1" parent="0"/>
                <mxCell id="dkp1uIshvCov8CXIt7mE-12" style="edgeStyle=none;html=1;entryX=0;entryY=0.5;entryDx=0;entryDy=0;" edge="1" parent="1" source="2" target="dkp1uIshvCov8CXIt7mE-7">
                    <mxGeometry relative="1" as="geometry"/>
                </mxCell>
                <mxCell id="2" value="Aluno" style="shape=umlActor;verticalLabelPosition=bottom;verticalAlign=top;html=1;outlineConnect=0;" vertex="1" parent="1">
                    <mxGeometry x="70" y="200" width="30" height="60" as="geometry"/>
                </mxCell>
                <mxCell id="dkp1uIshvCov8CXIt7mE-7" value="Consultas" style="ellipse;whiteSpace=wrap;html=1;" vertex="1" parent="1">
                    <mxGeometry x="240" y="200" width="120" height="60" as="geometry"/>
                </mxCell>
            </root>
        </mxGraphModel>
    </diagram>
    <diagram id="LAzAtH33ZT_EF7tr8IGW" name="Page-2">
        <mxGraphModel dx="1093" dy="522" grid="1" gridSize="10" guides="1" tooltips="1" connect="1" arrows="1" fold="1" page="1" pageScale="1" pageWidth="850" pageHeight="1100" math="0" shadow="0">
            <root>
                <mxCell id="VA8h-S4QqG6EqJoujMVV-0"/>
                <mxCell id="VA8h-S4QqG6EqJoujMVV-1" parent="VA8h-S4QqG6EqJoujMVV-0"/>
            </root>
        </mxGraphModel>
    </diagram>
</mxfile>